# xmcd
#
# Track frame offsets: 
#        150
#        18540
#        33516
#        53162
#        65466
#        83913
#        93962
#        113070
#        122560
#        134890
#
# Disc length: 1927 seconds
#
# Revision: 0
# Processed by: cddbd v1.5.2PL0 Copyright (c) Steve Scherf et al.
# Submitted via: ExactAudioCopyFreeDBPlugin 1.0
#
DISCID=8607850a
DTITLE=Rob Oxford - Americana . . . .  Trains, Trains, and More
DYEAR=2001
DGENRE=Trains
TTITLE0=City of New Orleans
TTITLE1=Sixteen Tons
TTITLE2=Wabash Cannonball
TTITLE3=I'm So Lonesome I Could Cry
TTITLE4=Ghost Riders in the Sky
TTITLE5=Chattanooga Choo Choo
TTITLE6=Streets of Laredo (Cowboy's Lament)
TTITLE7=Folsom Prison
TTITLE8=They Call the Wind Maria
TTITLE9=America the Beautiful
EXTD=CD Baby id:roboxfordBarcode: 750458298824
EXTT0=
EXTT1=
EXTT2=
EXTT3=
EXTT4=
EXTT5=
EXTT6=
EXTT7=
EXTT8=
EXTT9=
PLAYORDER=
